<svg width="32" height="32" viewBox="0 0 32 32" fill="none" xmlns="http://www.w3.org/2000/svg">
<path fill-rule="evenodd" clip-rule="evenodd" d="M16 29C23.1797 29 29 23.1797 29 16C29 8.8203 23.1797 3 16 3C8.8203 3 3 8.8203 3 16C3 23.1797 8.8203 29 16 29ZM6.78915 12.7945C7.39631 11.0496 8.48531 9.53029 9.89684 8.3959C10.3322 9.0607 11.0836 9.49985 11.9375 9.49985C13.2837 9.49985 14.375 10.5912 14.375 11.9374V12.7499C14.375 14.5448 15.8301 15.9999 17.625 15.9999C19.42 15.9999 20.875 14.5448 20.875 12.7499C20.875 11.2222 21.9291 9.94066 23.3496 9.59293C24.8445 11.3064 25.75 13.5474 25.75 15.9999C25.75 16.5536 25.7039 17.0966 25.6152 17.6251H24.125C22.33 17.6251 20.875 19.0802 20.875 20.8751V24.4455C19.4409 25.2751 17.7757 25.7499 15.9999 25.7499V22.5C15.9999 20.7051 14.5448 19.25 12.7499 19.25C10.9549 19.25 9.49986 17.7949 9.49986 16C9.49986 14.3888 8.32742 13.0514 6.78915 12.7945Z" fill="white"/>
</svg>
