<svg width="204" height="50" viewBox="0 0 204 50" fill="none" xmlns="http://www.w3.org/2000/svg">
<path d="M3.4 4H7L5.5 13.7H5.6C6.3 12.6 7.8 10.5 10.6 10.5C12.8 10.5 14.5 12 13.9 15.5L12.2 26H8.7L10 17.3C10.5 14.2 10.2 13.8 9 13.8C6.6 13.8 4.9 17 4.6 19.4L3.6 26H0L3.4 4Z" fill="#1D3176"/>
<path d="M21.1 23.9C23.6 23.9 24.4 21.3 24.9 18.4C25.3 15.6 25.4 12.9 22.8 12.9C20.3 12.9 19.5 15.5 19 18.4C18.5 21.2 18.5 23.9 21.1 23.9ZM15.2 18.4C16 13.4 18.8 10.5 23.1 10.5C27.5 10.5 29.3 13.5 28.6 18.4C27.8 23.4 25 26.3 20.7 26.3C16.3 26.3 14.4 23.4 15.2 18.4Z" fill="#1D3176"/>
<path d="M38.2 26.1C37.2 26.3 36.1999 26.4 35.2999 26.4C31.2999 26.4 30.8999 24.5 31.2999 22.2L32.7 13.3H29.7L30.1 10.8H33.0999L33.7 7.20001L37.5999 5.10001L36.7 10.8H41.2L40.7999 13.3H36.2999L35.2 20.5C34.9 22.3 34.8999 23.9 37.0999 23.9C37.6999 23.9 38.1999 23.8 38.7999 23.6L38.2 26.1Z" fill="#1D3176"/>
<path d="M53.5 25.7C52.2 26.1 50.7 26.4 49.1 26.4C44.5 26.4 41 23.9 41 17.8C41 13.8 43 10.5 48 10.5C52.6 10.5 53.8 13.2 53.8 16H50C50 14.5 49.6 12.9 47.7 12.9C45.8 12.9 44.8 14.8 44.8 17C44.8 20.1 46.5 23.8 51 23.8C52 23.8 52.8 23.7 53.5 23.4V25.7Z" fill="#1D3176"/>
<path d="M60.9 23.9C63.4 23.9 63.7999 21.3 63.7999 18.4C63.7999 15.6 63.4 12.9 60.9 12.9C58.3 12.9 58 15.5 58 18.4C57.9 21.3 58.3 23.9 60.9 23.9ZM54.2 18.5C54.2 13.5 56.5 10.6 60.9 10.6C65.3 10.6 67.5999 13.6 67.5999 18.5C67.5999 23.5 65.3 26.4 60.9 26.4C56.5 26.4 54.2 23.4 54.2 18.5Z" fill="#1D3176"/>
<path d="M77.4 23.2C76.9 24.3 75.6 26.4 72.8 26.4C70.6 26.4 68.7 24.9 68.7 21.4V10.9H72.2V19.6C72.2 22.7 72.5 23.1 73.8 23.1C76.2 23.1 77.4 19.9 77.4 17.5V10.9H81V26H77.5V23.2H77.4Z" fill="#1D3176"/>
<path d="M82.4 10.9H86V13.7C86.8 12.2 87.8 10.5 90.9 10.5V14.2C87.3 14.2 85.9 15.7 85.9 19.4V26H82.4V10.9Z" fill="#1D3176"/>
<path d="M100.6 14.1C100.2 13.9 98.8 13.1 97.2 13.1C96.1 13.1 94.8 13.6 94.8 14.5C94.8 16.5 101.5 17.5 101.5 21.9C101.5 25 99.1 26.5 95.8 26.5C93.7 26.5 92.5 26.1 91.8 25.9V22.8C92.8 23.2 94.2 23.7 95.7 23.7C96.6 23.7 98.3 23.5 98.3 22.3C98.3 20.5 91.8 19 91.8 15C91.8 12.2 94 10.5 97.3 10.5C98.8 10.5 100 10.9 100.7 11.1V14.1H100.6Z" fill="#1D3176"/>
<path d="M111.6 15.4C111.6 14.4 111.1 12.8 108.9 12.8C106.8 12.8 106.1 14.5 106 15.4H111.6ZM114.6 25.8C113.3 26.2 112 26.4 110.4 26.4C105.5 26.4 102.7 23.2 102.7 17.7C102.7 13.5 104.6 10.6 109.2 10.6C113.1 10.6 115 13.1 115 16.8V17.7H106C106 19.8 107.4 24.1 111.7 24.1C112.8 24.1 114 23.7 114.6 23.5V25.8Z" fill="#1D3176"/>
<path d="M125.2 14.1C124.8 13.9 123.4 13.1 121.8 13.1C120.7 13.1 119.4 13.6 119.4 14.5C119.4 16.5 126.1 17.5 126.1 21.9C126.1 25 123.7 26.5 120.4 26.5C118.3 26.5 117.1 26.1 116.4 25.9V22.8C117.4 23.2 118.8 23.7 120.3 23.7C121.2 23.7 122.9 23.5 122.9 22.3C122.9 20.5 116.4 19 116.4 15C116.4 12.2 118.6 10.5 121.9 10.5C123.4 10.5 124.6 10.9 125.3 11.1L125.2 14.1Z" fill="#1D3176"/>
<path d="M132.8 23.9C135.1 23.9 136 21.4 136 19.3C133.7 19.3 131 20 131 22C130.9 23.3 131.6 23.9 132.8 23.9ZM135.9 24.3C135.4 25.3 134.3 26.4 131.9 26.4C129.4 26.4 127.4 24.9 127.4 22.4C127.4 17.4 133.8 17.3 135.9 17.3V15.8C135.9 14.3 135.6 13 133.8 13C131.9 13 131.5 14.3 131.5 15.3H128C128 12.4 130 10.5 133.8 10.5C137.6 10.5 139.3 12.1 139.3 15.2V26H135.9V24.3Z" fill="#E73C4E"/>
<path d="M146.7 23.9C149 23.9 149.3 20.9 149.3 18.4C149.3 15.7 149 12.7 146.7 12.7C144.6 12.7 143.9 15.8 143.9 18.4C143.9 22.3 144.5 23.9 146.7 23.9ZM143.9 12.7C144.4 11.9 145.6 10.5 147.9 10.5C151.5 10.5 153.1 13.6 153.1 18.4C153.1 22.6 151.6 26.3 146.7 26.3C142.7 26.3 140.4 24 140.4 19.5V4H143.9V12.7Z" fill="#E73C4E"/>
<path d="M154.3 10.9H157.8V13.7H157.9C158.7 12.2 159.7 10.5 162.8 10.5V14.2C159.2 14.2 157.8 15.7 157.8 19.4V26H154.3V10.9Z" fill="#E73C4E"/>
<path d="M169.2 23.9C171.8 23.9 172.1 21.3 172.1 18.4C172.1 15.6 171.7 12.9 169.2 12.9C166.6 12.9 166.3 15.5 166.3 18.4C166.2 21.3 166.6 23.9 169.2 23.9ZM162.5 18.5C162.5 13.5 164.8 10.6 169.2 10.6C173.6 10.6 175.9 13.6 175.9 18.5C175.9 23.5 173.6 26.4 169.2 26.4C164.8 26.4 162.5 23.4 162.5 18.5Z" fill="#E73C4E"/>
<path d="M182.9 23.9C185.2 23.9 186.1 21.4 186.1 19.3C183.8 19.3 181.1 20 181.1 22C181.1 23.3 181.7 23.9 182.9 23.9ZM186.1 24.3C185.6 25.3 184.5 26.4 182.1 26.4C179.6 26.4 177.6 24.9 177.6 22.4C177.6 17.4 184 17.3 186.1 17.3V15.8C186.1 14.3 185.7 13 184 13C182.1 13 181.7 14.3 181.7 15.3H178.3C178.3 12.4 180.2 10.5 184.1 10.5C187.9 10.5 189.6 12.1 189.6 15.2V26H186.2V24.3H186.1Z" fill="#E73C4E"/>
<path d="M196.9 23.7C198.9 23.7 199.6 20.9 199.6 18.5C199.6 15.7 199 13.3 196.9 13.3C194.6 13.3 194.3 16 194.3 18.5C194.3 20.8 194.7 23.7 196.9 23.7ZM199.6 23.9C199.2 24.8 197.7 26.4 195.7 26.4C191.7 26.4 190.5 22.7 190.5 18.5C190.5 14.1 192.1 10.6 195.7 10.6C198 10.6 199 12 199.5 12.8H199.6V4H203.1V26H199.6V23.9Z" fill="#E73C4E"/>
<path d="M84.5 43H83.6C83.5 43 83.4 43 83.3 42.9C83.2 42.8 83.2 42.8 83.2 42.7L82.4 40.6H78.5L77.7 42.7C77.7 42.8 77.6 42.8 77.6 42.9C77.6 43 77.4 43 77.3 43H76.4L79.8 34.4H81L84.5 43ZM78.9 39.8H82.1L80.7 36.3C80.6 36.1 80.6 35.8 80.5 35.5C80.5 35.7 80.4 35.8 80.4 36C80.4 36.2 80.3 36.2 80.2 36.3L78.9 39.8Z" fill="#464646"/>
<path d="M86.4 34.4C86.4 34.4 86.5 34.5 86.6 34.6L91.6 41.1C91.6 41 91.6 40.9 91.6 40.8C91.6 40.7 91.6 40.6 91.6 40.5V34.4H92.6V43H92C91.9 43 91.8 43 91.8 43C91.8 43 91.7 42.9 91.6 42.8L86.6 36.3C86.6 36.4 86.6 36.5 86.6 36.6C86.6 36.7 86.6 36.8 86.6 36.9V43H85.6V34.4H86.2C86.3 34.4 86.4 34.4 86.4 34.4Z" fill="#464646"/>
<path d="M150.1 41.2C150.2 41.2 150.2 41.2 150.3 41.3L150.8 41.8C150.4 42.2 150 42.5 149.5 42.8C149 43 148.4 43.1 147.7 43.1C147.1 43.1 146.5 43 146 42.8C145.5 42.6 145.1 42.3 144.7 41.9C144.3 41.5 144.1 41.1 143.9 40.5C143.7 40 143.6 39.4 143.6 38.7C143.6 38.1 143.7 37.5 143.9 36.9C144.1 36.3 144.4 35.9 144.8 35.5C145.2 35.1 145.6 34.8 146.2 34.6C146.8 34.4 147.3 34.3 148 34.3C148.6 34.3 149.2 34.4 149.6 34.6C150.1 34.8 150.5 35.1 150.8 35.4L150.4 35.9L150.3 36C150.3 36 150.2 36 150.1 36C150 36 150 36 149.9 35.9C149.8 35.9 149.8 35.8 149.7 35.8C149.6 35.8 149.5 35.7 149.4 35.6C149.3 35.5 149.2 35.5 149 35.4C148.9 35.3 148.7 35.3 148.5 35.3C148.3 35.3 148.1 35.2 147.8 35.2C147.3 35.2 146.9 35.3 146.5 35.4C146.1 35.5 145.8 35.8 145.5 36.1C145.2 36.4 145 36.7 144.9 37.2C144.7 37.6 144.7 38.1 144.7 38.6C144.7 39.1 144.8 39.6 144.9 40C145.1 40.4 145.3 40.8 145.5 41.1C145.8 41.4 146.1 41.6 146.4 41.8C146.8 42 147.2 42 147.6 42C147.9 42 148.1 42 148.3 42C148.5 42 148.7 41.9 148.9 41.9C149.1 41.8 149.2 41.8 149.4 41.7C149.5 41.6 149.7 41.5 149.9 41.3C150 41.3 150.1 41.2 150.1 41.2Z" fill="#464646"/>
<path d="M160.3 38.7C160.3 39.3 160.2 39.9 160 40.5C159.8 41 159.5 41.5 159.1 41.9C158.7 42.3 158.3 42.6 157.8 42.8C157.3 43 156.7 43.1 156.1 43.1C155.5 43.1 154.9 43 154.4 42.8C153.9 42.6 153.4 42.3 153.1 41.9C152.8 41.5 152.4 41 152.2 40.5C152 40 151.9 39.4 151.9 38.7C151.9 38.1 152 37.5 152.2 36.9C152.4 36.3 152.7 35.9 153.1 35.5C153.5 35.1 153.9 34.8 154.4 34.6C154.9 34.4 155.5 34.3 156.1 34.3C156.7 34.3 157.3 34.4 157.8 34.6C158.3 34.8 158.8 35.1 159.1 35.5C159.4 35.9 159.8 36.4 160 36.9C160.2 37.4 160.3 38.1 160.3 38.7ZM159.1 38.7C159.1 38.2 159 37.7 158.9 37.3C158.8 36.9 158.6 36.5 158.3 36.2C158 35.9 157.7 35.7 157.3 35.5C156.9 35.3 156.5 35.3 156 35.3C155.5 35.3 155.1 35.4 154.7 35.5C154.3 35.6 154 35.9 153.7 36.2C153.4 36.5 153.2 36.8 153.1 37.3C153.1 37.7 153 38.2 153 38.7C153 39.2 153.1 39.7 153.2 40.1C153.3 40.5 153.5 40.9 153.8 41.2C154.1 41.5 154.4 41.7 154.8 41.9C155.2 42.1 155.6 42.1 156.1 42.1C156.6 42.1 157 42 157.4 41.9C157.8 41.7 158.1 41.5 158.4 41.2C158.7 40.9 158.9 40.6 159 40.1C159 39.7 159.1 39.2 159.1 38.7Z" fill="#464646"/>
<path d="M166.2 40.2C166.2 40.3 166.3 40.4 166.3 40.5C166.3 40.4 166.4 40.3 166.4 40.2C166.4 40.1 166.5 40 166.6 39.9L169.5 34.6C169.6 34.5 169.6 34.5 169.7 34.4C169.8 34.4 169.8 34.4 169.9 34.4H170.8V43H169.8V36.7C169.8 36.6 169.8 36.5 169.8 36.4C169.8 36.3 169.8 36.2 169.8 36.1L166.9 41.5C166.8 41.7 166.7 41.8 166.5 41.8H166.3C166.1 41.8 166 41.7 165.9 41.5L162.9 36.1C162.9 36.2 162.9 36.3 162.9 36.4C162.9 36.5 162.9 36.6 162.9 36.7V43H161.9V34.4H162.8C162.9 34.4 163 34.4 163 34.4C163.1 34.4 163.1 34.5 163.2 34.6L166.2 39.9C166.2 40 166.2 40.1 166.2 40.2Z" fill="#464646"/>
<path d="M174.2 39.8V43H173V34.4H175.5C176 34.4 176.5 34.5 176.9 34.6C177.3 34.7 177.6 34.9 177.9 35.1C178.2 35.3 178.4 35.6 178.5 35.9C178.6 36.2 178.7 36.6 178.7 37C178.7 37.4 178.6 37.8 178.5 38.1C178.4 38.4 178.2 38.7 177.9 39C177.6 39.2 177.3 39.4 176.9 39.6C176.5 39.7 176 39.8 175.5 39.8H174.2ZM174.2 38.9H175.6C175.9 38.9 176.2 38.9 176.5 38.8C176.8 38.7 177 38.6 177.1 38.4C177.3 38.2 177.4 38.1 177.5 37.8C177.6 37.6 177.6 37.3 177.6 37.1C177.6 36.6 177.4 36.1 177.1 35.8C176.8 35.5 176.3 35.3 175.6 35.3H174.2V38.9Z" fill="#464646"/>
<path d="M186.5 43H185.6C185.5 43 185.4 43 185.3 42.9C185.2 42.8 185.2 42.8 185.2 42.7L184.4 40.6H180.5L179.7 42.7C179.7 42.8 179.6 42.8 179.6 42.9C179.6 43 179.4 43 179.3 43H178.4L181.8 34.4H183L186.5 43ZM180.9 39.8H184.1L182.7 36.3C182.6 36.1 182.5 35.8 182.4 35.5C182.4 35.7 182.3 35.8 182.3 36C182.3 36.2 182.2 36.3 182.2 36.4L180.9 39.8Z" fill="#464646"/>
<path d="M188.4 34.4C188.4 34.4 188.5 34.5 188.6 34.6L193.6 41.1C193.6 41 193.6 40.9 193.6 40.8C193.6 40.7 193.6 40.6 193.6 40.5V34.4H194.6V43H194C193.9 43 193.8 43 193.8 43C193.7 43 193.7 42.9 193.6 42.8L188.6 36.3C188.6 36.4 188.6 36.5 188.6 36.6C188.6 36.7 188.6 36.8 188.6 36.9V43H187.6V34.4H188.2C188.3 34.4 188.4 34.4 188.4 34.4Z" fill="#464646"/>
<path d="M200 39.6V43H198.8V39.6L195.6 34.4H196.6C196.7 34.4 196.8 34.4 196.8 34.5C196.9 34.6 196.9 34.6 197 34.7L199 38C199.1 38.1 199.1 38.3 199.2 38.4C199.3 38.5 199.3 38.6 199.3 38.8C199.3 38.7 199.4 38.6 199.4 38.4C199.5 38.3 199.5 38.1 199.6 38L201.6 34.7C201.6 34.6 201.7 34.6 201.7 34.5C201.8 34.4 201.8 34.4 201.9 34.4H202.9L200 39.6Z" fill="#464646"/>
<path d="M105.9 38.2C106 37.3 106.8 36.7 107.7 36.7C107.9 36.7 108.1 36.7 108.3 36.8C110 34.4 108.2 32.8 108 32.6C106.1 30.9 102.6 30.3 98.2 32.1C98.2 32.1 99.5 37.3 105.5 38.1C105.2 38.1 105 38.1 105 38.1C103.1 38.1 101.4 38.9 100.7 39.4C98.2 41.3 98 44.2 98 44.2C98.1 44.2 102.5 44.8 105.2 42.3C105.5 42.1 105.7 41.8 105.9 41.5C105.9 41.5 106 41.4 106.1 41.2C106 41.7 106 42.1 106 42.1C106.1 43.7 107.7 47 114.4 47C114.4 46.9 115 42.9 113.3 40.9C112.5 39.8 111.5 39.4 111.5 39.4C110.6 38.9 109.3 39 109.3 39C109 39.6 108.4 40 107.7 40C107.4 40 107.2 39.9 107 39.8C106.4 39.5 106 39 106 38.3C105.9 38.3 105.9 38.2 105.9 38.2Z" fill="#464646"/>
<path d="M134.5 41.8C133.3 41.8 132 40.9 132 39C132 37.2 133.3 36.2 134.5 36.2C135.8 36.3 137 37.2 137 39C137 40.9 135.8 41.8 134.5 41.8ZM134.8 34.6C133.6 34.6 132.6 35.1 132 35.9V35.5C132 35 131.5 34.6 131 34.6C130.5 34.6 130.1 35 130.1 35.5V46C130.1 46.5 130.5 47 131 47C131.5 47 131.9 46.6 131.9 46V42.3C132.6 43.2 133.7 43.5 134.7 43.5C136.8 43.5 138.8 41.9 138.8 39C138.9 36.1 136.7 34.6 134.8 34.6Z" fill="#464646"/>
<path d="M123.8 41.7C122.5 41.7 121.3 40.8 121.3 38.9C121.3 37 122.5 36.1 123.8 36.1C125.1 36.1 126.4 37 126.4 38.9C126.3 40.8 125 41.7 123.8 41.7ZM127.3 31C126.8 31 126.4 31.4 126.4 32V35.7C125.7 34.8 124.6 34.5 123.6 34.5C121.5 34.5 119.5 36.1 119.5 39C119.5 42 121.7 43.5 123.6 43.5C124.8 43.5 125.8 43 126.4 42.2V42.6C126.4 43.1 126.8 43.5 127.3 43.5C127.8 43.5 128.2 43.1 128.2 42.6V32C128.2 31.4 127.8 31 127.3 31Z" fill="#464646"/>
<path d="M117 31C116.2 31 115.5 31.6 115.5 32.3C115.5 33.1 116.1 33.6 117 33.6C117.9 33.6 118.5 33 118.5 32.3C118.4 31.6 117.8 31 117 31Z" fill="#464646"/>
<path d="M117.5 34.6C117 34.6 116.5 35 116.5 35.5V42.5C116.5 43 116.9 43.4 117.5 43.4C118 43.4 118.5 43 118.5 42.5V39.8V37.9V35.5C118.4 35 118 34.6 117.5 34.6Z" fill="#464646"/>
</svg>
