<svg width="145" height="16" viewBox="0 0 145 16" fill="none" xmlns="http://www.w3.org/2000/svg">
<path d="M2.41 -0.00198364H4.91901L3.85001 6.88501H3.89301C4.22743 6.22031 4.73506 5.6582 5.36234 5.25797C5.98961 4.85773 6.71328 4.63423 7.457 4.61102C9.047 4.61102 10.223 5.70202 9.83798 8.17502L8.68298 15.682H6.159L7.121 9.50101C7.463 7.29101 7.28499 6.97702 6.40799 6.97702C4.70799 6.97702 3.49899 9.29402 3.23599 10.998L2.52298 15.682H0L2.41 -0.00198364Z" fill="#2B4A82"/>
<path d="M10.8145 10.285C11.3635 6.721 13.3525 4.625 16.4675 4.625C19.5825 4.625 20.9155 6.764 20.3595 10.285C19.8035 13.806 17.8215 15.945 14.7065 15.945C11.5915 15.945 10.2585 13.806 10.8145 10.285ZM14.9845 14.17C16.8025 14.17 17.3655 12.309 17.6795 10.285C17.9935 8.261 18.0075 6.40002 16.1895 6.40002C14.3715 6.40002 13.8085 8.261 13.4945 10.285C13.1805 12.309 13.1665 14.17 14.9845 14.17Z" fill="#2B4A82"/>
<path d="M27.2387 15.767C26.5445 15.8816 25.8423 15.9411 25.1387 15.945C22.2867 15.945 22.0307 14.583 22.2867 12.972L23.2707 6.62701H21.1367L21.4077 4.88H23.5467L23.9467 2.31403L26.7057 0.788025L26.0717 4.88H29.2717L29.0007 6.62701H25.8007L25.0097 11.738C24.8097 13.038 24.7887 14.169 26.3357 14.169C26.7383 14.1547 27.1378 14.0926 27.5257 13.984L27.2387 15.767Z" fill="#2B4981"/>
<path d="M38.0898 15.482C37.0682 15.806 36.0036 15.9746 34.9318 15.982C31.6808 15.982 29.1318 14.235 29.1318 9.84402C29.1318 6.99202 30.5578 4.66101 34.1218 4.66101C37.3728 4.66101 38.2348 6.61401 38.2348 8.61801H35.5548C35.5548 7.57001 35.2838 6.43701 33.9148 6.43701C32.5458 6.43701 31.8478 7.75602 31.8478 9.39502C31.8478 11.595 33.0308 14.214 36.3038 14.214C36.9209 14.2291 37.536 14.1375 38.1218 13.943V15.49L38.0898 15.482Z" fill="#2B4981"/>
<path d="M38.5889 10.32C38.5889 6.75604 40.2499 4.66003 43.3649 4.66003C46.4799 4.66003 48.1409 6.79904 48.1409 10.32C48.1409 13.841 46.4799 15.98 43.3649 15.98C40.2499 15.98 38.5889 13.841 38.5889 10.32ZM43.3649 14.205C45.1829 14.205 45.4539 12.344 45.4539 10.32C45.4539 8.29604 45.1829 6.43503 43.3649 6.43503C41.5469 6.43503 41.2758 8.29604 41.2758 10.32C41.2758 12.344 41.5469 14.205 43.3649 14.205Z" fill="#2B4981"/>
<path d="M55.1849 13.707H55.1419C54.9059 14.3699 54.4712 14.9439 53.8972 15.3508C53.3231 15.7577 52.6375 15.9778 51.9339 15.981C50.3439 15.981 49.0039 14.89 49.0039 12.417V4.91003H51.5279V11.091C51.5279 13.291 51.7559 13.615 52.6399 13.615C54.3219 13.615 55.1849 11.315 55.1849 9.59402V4.91003H57.6729V15.732H55.1489V13.707H55.1849Z" fill="#2B4981"/>
<path d="M58.7284 4.91H61.2374V6.91H61.2804C61.5575 6.21746 62.0434 5.62842 62.6707 5.22467C63.2979 4.82092 64.0353 4.62252 64.7804 4.65701V7.29501C62.2354 7.29501 61.2164 8.36401 61.2164 10.981V15.723H58.6924V4.91H58.7284Z" fill="#2B4981"/>
<path d="M71.6886 7.20502C70.952 6.78226 70.1266 6.53804 69.2786 6.492C68.5086 6.492 67.5966 6.856 67.5966 7.492C67.5966 8.918 72.3446 9.63101 72.3446 12.739C72.3446 14.97 70.6446 15.99 68.2526 15.99C67.2844 16.0036 66.3207 15.8566 65.4006 15.555V13.374C66.2649 13.7743 67.2006 13.9974 68.1526 14.03C68.7656 14.03 70.0136 13.916 70.0136 13.053C70.0136 11.777 65.3516 10.715 65.3516 7.853C65.3516 5.828 66.8986 4.673 69.2366 4.673C70.0687 4.69519 70.8937 4.83182 71.6886 5.07901V7.21701V7.20502Z" fill="#2B4981"/>
<path d="M81.6401 15.546C80.6624 15.8528 79.6416 15.9997 78.6171 15.981C75.1171 15.981 73.1631 13.728 73.1631 9.75702C73.1631 6.73402 74.5251 4.66699 77.7971 4.66699C80.5491 4.66699 81.9101 6.41399 81.9101 9.05099V9.664H75.4941C75.4941 11.164 76.5211 14.212 79.5651 14.212C80.2713 14.1872 80.969 14.0502 81.6321 13.806V15.56L81.6401 15.546ZM79.5011 8.13901C79.5167 7.88962 79.4792 7.63975 79.3908 7.40601C79.3025 7.17226 79.1655 6.96001 78.9888 6.78333C78.8121 6.60664 78.5998 6.46956 78.3661 6.38123C78.1323 6.29289 77.8825 6.25532 77.6331 6.271C77.1201 6.26564 76.6241 6.45453 76.2446 6.79971C75.8651 7.14489 75.6302 7.62084 75.5871 8.13202H79.5431L79.5011 8.13901Z" fill="#2B4981"/>
<path d="M89.254 7.20502C88.5174 6.78222 87.692 6.53801 86.844 6.492C86.074 6.492 85.162 6.856 85.162 7.492C85.162 8.918 89.91 9.63101 89.91 12.739C89.91 14.97 88.21 15.99 85.818 15.99C84.8498 16.0036 83.8861 15.8566 82.966 15.555V13.374C83.8303 13.7743 84.766 13.9974 85.718 14.03C86.331 14.03 87.579 13.916 87.579 13.053C87.579 11.777 82.917 10.715 82.917 7.853C82.917 5.828 84.464 4.673 86.802 4.673C87.6341 4.69506 88.4592 4.83168 89.254 5.07901V7.21701V7.20502Z" fill="#2B4981"/>
<path d="M96.8816 14.477C96.6166 14.9886 96.2011 15.4067 95.6911 15.6749C95.1812 15.9431 94.6013 16.0485 94.0296 15.977C93.6301 16.014 93.2274 15.968 92.8466 15.842C92.4657 15.7159 92.1151 15.5125 91.8166 15.2445C91.5181 14.9766 91.2782 14.6498 91.1119 14.2847C90.9457 13.9196 90.8567 13.5241 90.8506 13.123C90.8506 9.55902 95.3986 9.509 96.8956 9.466V8.397C96.8956 7.328 96.6246 6.42203 95.3696 6.42203C95.1448 6.39434 94.9167 6.41823 94.7026 6.49191C94.4884 6.5656 94.2939 6.68713 94.1338 6.84726C93.9737 7.00739 93.8522 7.20189 93.7785 7.41602C93.7048 7.63015 93.6809 7.85825 93.7086 8.08301H91.2566C91.2566 6.01601 92.6186 4.65402 95.3696 4.65402C98.1206 4.65402 99.3046 5.81601 99.3046 8.01901V15.723H96.8806V14.468L96.8816 14.477ZM94.6286 14.206C96.2686 14.206 96.8816 12.431 96.8816 10.955C95.2416 10.955 93.3176 11.455 93.3176 12.908C93.2996 13.0867 93.3223 13.2671 93.3839 13.4357C93.4455 13.6044 93.5444 13.7569 93.6733 13.882C93.8022 14.007 93.9576 14.1013 94.1281 14.1577C94.2985 14.2142 94.4795 14.2314 94.6576 14.208" fill="#F73C33"/>
<path d="M102.585 6.20703H102.628C102.913 5.72312 103.322 5.32439 103.814 5.05234C104.305 4.78028 104.86 4.64483 105.422 4.66003C108.017 4.66003 109.15 6.86004 109.15 10.32C109.15 13.343 108.102 15.98 104.58 15.98C101.728 15.98 100.053 14.369 100.053 11.139V0.0480347H102.584V6.20703H102.585ZM104.585 14.207C106.196 14.207 106.474 12.068 106.474 10.322C106.474 8.36902 106.267 6.27304 104.585 6.27304C103.059 6.27304 102.585 8.49702 102.585 10.322C102.585 13.022 102.991 14.207 104.585 14.207Z" fill="#F73C33"/>
<path d="M110.014 4.91H112.566V6.91C112.843 6.21746 113.329 5.62842 113.956 5.22467C114.583 4.82092 115.32 4.62252 116.066 4.65701V7.29501C113.521 7.29501 112.502 8.36401 112.502 10.981V15.723H109.978V4.91H110.014Z" fill="#F73C33"/>
<path d="M115.809 10.32C115.809 6.75604 117.47 4.66003 120.585 4.66003C123.7 4.66003 125.354 6.79904 125.354 10.32C125.354 13.841 123.693 15.98 120.585 15.98C117.477 15.98 115.809 13.841 115.809 10.32ZM120.585 14.205C122.403 14.205 122.674 12.344 122.674 10.32C122.674 8.29604 122.403 6.43503 120.585 6.43503C118.767 6.43503 118.496 8.29604 118.496 10.32C118.496 12.344 118.767 14.205 120.585 14.205Z" fill="#F73C33"/>
<path d="M132.648 14.477H132.605C132.34 14.9886 131.925 15.4067 131.415 15.6749C130.905 15.9431 130.325 16.0485 129.753 15.977C129.354 16.014 128.951 15.968 128.57 15.842C128.189 15.7159 127.839 15.5125 127.54 15.2445C127.242 14.9766 127.002 14.6498 126.836 14.2847C126.669 13.9196 126.58 13.5241 126.574 13.123C126.574 9.55902 131.122 9.509 132.619 9.466V8.397C132.619 7.328 132.348 6.42203 131.093 6.42203C130.868 6.39434 130.64 6.41823 130.426 6.49191C130.212 6.5656 130.018 6.68713 129.857 6.84726C129.697 7.00739 129.576 7.20189 129.502 7.41602C129.428 7.63015 129.405 7.85825 129.432 8.08301H126.98C126.98 6.01601 128.342 4.65402 131.093 4.65402C133.844 4.65402 135.021 5.81601 135.021 8.01901V15.723H132.611V14.468L132.648 14.477ZM130.395 14.206C132.035 14.206 132.648 12.431 132.648 10.955C131.008 10.955 129.084 11.455 129.084 12.908C129.065 13.087 129.086 13.2681 129.147 13.4375C129.208 13.6069 129.307 13.7601 129.436 13.8855C129.566 14.0109 129.722 14.1051 129.893 14.161C130.064 14.2169 130.246 14.233 130.424 14.208" fill="#F73C33"/>
<path d="M142.286 14.255H142.243C141.986 14.7581 141.602 15.1845 141.128 15.4913C140.654 15.798 140.107 15.9742 139.543 16.002C136.691 16.002 135.836 13.364 135.836 10.342C135.836 7.20501 136.948 4.68204 139.543 4.68204C140.091 4.66835 140.633 4.80534 141.109 5.07809C141.585 5.35085 141.977 5.74893 142.243 6.22903H142.286V0.0690308H144.81V15.753H142.286V14.255ZM140.375 14.048C141.801 14.048 142.286 12.073 142.286 10.341C142.286 8.34103 141.83 6.63403 140.375 6.63403C138.714 6.63403 138.514 8.54503 138.514 10.341C138.514 12.137 138.785 14.048 140.375 14.048Z" fill="#F73C33"/>
</svg>
