<svg id="Layer_1" data-name="Layer 1" xmlns="http://www.w3.org/2000/svg" viewBox="0 0 23.5 22.5"><defs><style>.cls-1{fill:#464646;}</style></defs><title>account_grey</title><path class="cls-1" d="M23.5,19.85V22.5H0V19.85c0-.8,2-1.95,5.1-3s4-2.1,4-4.1c0-1.25-.9-0.85-1.35-3.05-0.15-.95-1,0-1.15-2.15A1.06,1.06,0,0,1,7.1,6.45S6.9,5.2,6.8,4.25C6.7,3.05,7.5,0,11.75,0s5.1,3.05,5,4.25a18.7,18.7,0,0,1-.3,2.2,1.06,1.06,0,0,1,.45,1.05c-0.15,2.1-1,1.2-1.15,2.15-0.4,2.2-1.35,1.8-1.35,3.05,0,2,1,3,4.05,4.1S23.5,19.05,23.5,19.85Z"/></svg>